<svg width="24" height="24" viewBox="0 0 24 24" fill="none" xmlns="http://www.w3.org/2000/svg">
<path d="M19.8836 7.95349H3.97661C3.42753 7.95349 2.98242 8.3986 2.98242 8.94768V10.936C2.98242 11.4851 3.42753 11.9302 3.97661 11.9302H19.8836C20.4327 11.9302 20.8778 11.4851 20.8778 10.936V8.94768C20.8778 8.3986 20.4327 7.95349 19.8836 7.95349Z" stroke="#16A34A" stroke-width="1.98837" stroke-linecap="round" stroke-linejoin="round"/>
<path d="M11.9302 7.95349V20.8779" stroke="#16A34A" stroke-width="1.98837" stroke-linecap="round" stroke-linejoin="round"/>
<path d="M18.8893 11.9303V18.8896C18.8893 19.4169 18.6798 19.9227 18.3069 20.2956C17.934 20.6685 17.4283 20.878 16.9009 20.878H6.95908C6.43173 20.878 5.92598 20.6685 5.55308 20.2956C5.18019 19.9227 4.9707 19.4169 4.9707 18.8896V11.9303" stroke="#16A34A" stroke-width="1.98837" stroke-linecap="round" stroke-linejoin="round"/>
<path d="M7.45617 7.95342C6.79698 7.95342 6.16479 7.69156 5.69868 7.22544C5.23256 6.75933 4.9707 6.12714 4.9707 5.46796C4.9707 4.80877 5.23256 4.17658 5.69868 3.71047C6.16479 3.24435 6.79698 2.98249 7.45617 2.98249C8.41525 2.96578 9.35509 3.43113 10.1531 4.31784C10.9512 5.20456 11.5704 6.47149 11.93 7.95342C12.2896 6.47149 12.9088 5.20456 13.7069 4.31784C14.5049 3.43113 15.4448 2.96578 16.4038 2.98249C17.063 2.98249 17.6952 3.24435 18.1613 3.71047C18.6274 4.17658 18.8893 4.80877 18.8893 5.46796C18.8893 6.12714 18.6274 6.75933 18.1613 7.22544C17.6952 7.69156 17.063 7.95342 16.4038 7.95342" stroke="#16A34A" stroke-width="1.98837" stroke-linecap="round" stroke-linejoin="round"/>
</svg>
